<svg xmlns="http://www.w3.org/2000/svg" viewBox="0 0 500 500">
  <defs>
    <linearGradient id="a" x1="0%" y1="0%" x2="100%" y2="0%" gradientUnits="userSpaceOnUse">
      <stop offset="0%" stop-color="#3b82f6"/>
      <stop offset="100%" stop-color="#1e40af"/>
    </linearGradient>
  </defs>
  <path fill="#f0f0f0" d="M0 0h500v500H0z"/>
  <path fill="url(#a)" d="M250 100c-82.84 0-150 67.16-150 150s67.16 150 150 150 150-67.16 150-150-67.16-150-150-150z" opacity=".1"/>
  <g fill="none" stroke="#1e40af" stroke-linecap="round" stroke-linejoin="round" stroke-width="2">
    <path d="M250 200a50 50 0 1 0 50 50 50 50 0 0 0-50-50z"/>
    <path d="M250 250v-30M250 300v-20M280 250h20M220 250h20"/>
  </g>
  <g fill="#1e40af">
    <circle cx="250" cy="250" r="20" opacity=".5"/>
    <circle cx="250" cy="250" r="10"/>
  </g>
  <path fill="#3b82f6" d="M300 350h-100a10 10 0 0 1-10-10v-80a10 10 0 0 1 10-10h100a10 10 0 0 1 10 10v80a10 10 0 0 1-10 10z" opacity=".3"/>
  <path fill="#1e40af" d="M290 340h-80a5 5 0 0 1-5-5v-60a5 5 0 0 1 5-5h80a5 5 0 0 1 5 5v60a5 5 0 0 1-5 5z"/>
  <g fill="#fff">
    <rect width="50" height="5" x="240" y="320" rx="2.5"/>
    <rect width="30" height="5" x="240" y="330" rx="2.5"/>
  </g>
</svg>
